<svg xmlns="http://www.w3.org/2000/svg" width="900" height="520" viewBox="0 0 900 520">
  <defs>
    <linearGradient id="bgL" x1="0" y1="0" x2="0" y2="1">
      <stop offset="0%" stop-color="#f0faf4"/>
      <stop offset="100%" stop-color="#e8f5ee"/>
    </linearGradient>
    <linearGradient id="navL" x1="0" y1="0" x2="1" y2="0">
      <stop offset="0%" stop-color="#ffffff"/>
      <stop offset="100%" stop-color="#f7fdf9"/>
    </linearGradient>
    <linearGradient id="greenBarL" x1="0" y1="0" x2="1" y2="0">
      <stop offset="0%" stop-color="#16a34a"/>
      <stop offset="100%" stop-color="#22c55e"/>
    </linearGradient>
    <linearGradient id="cardL" x1="0" y1="0" x2="0" y2="1">
      <stop offset="0%" stop-color="#ffffff"/>
      <stop offset="100%" stop-color="#fafffe"/>
    </linearGradient>
    <filter id="shadowL"><feDropShadow dx="0" dy="2" stdDeviation="6" flood-color="#16a34a15"/></filter>
  </defs>

  <!-- Background -->
  <rect width="900" height="520" fill="url(#bgL)" rx="12"/>

  <!-- Top Nav Bar -->
  <rect x="0" y="0" width="900" height="48" fill="url(#navL)" rx="12"/>
  <rect x="0" y="36" width="900" height="12" fill="url(#navL)"/>
  <line x1="0" y1="48" x2="900" y2="48" stroke="#16a34a22" stroke-width="1"/>

  <!-- Logo -->
  <text x="20" y="31" font-family="monospace" font-size="18" fill="#16a34a">⚡</text>
  <text x="42" y="31" font-family="monospace" font-size="13" font-weight="bold" fill="#1a1a2e">Token Tracker</text>
  <rect x="150" y="18" width="52" height="18" rx="9" fill="#16a34a15" stroke="#16a34a33" stroke-width="0.5"/>
  <text x="160" y="30" font-family="monospace" font-size="9" fill="#0891b2">Feb 26</text>

  <!-- Theme toggle (sun mode) -->
  <rect x="660" y="16" width="40" height="20" rx="10" fill="#16a34a22" stroke="#16a34a44" stroke-width="0.5"/>
  <circle cx="690" cy="26" r="7" fill="#16a34a"/>
  <text x="688" y="29" font-family="sans-serif" font-size="8" fill="#fff" text-anchor="middle">☀</text>

  <!-- Nav right -->
  <circle cx="720" cy="24" r="4" fill="#16a34a" opacity="0.9"/>
  <text x="730" y="28" font-family="monospace" font-size="10" fill="#16a34a" font-weight="bold">LIVE</text>
  <rect x="770" y="14" width="50" height="22" rx="6" fill="#16a34a15" stroke="#16a34a33" stroke-width="0.5"/>
  <text x="780" y="29" font-family="monospace" font-size="9" fill="#16a34a">↻ Sync</text>
  <rect x="830" y="14" width="55" height="22" rx="6" fill="#fee2e215" stroke="#ef444433" stroke-width="0.5"/>
  <text x="837" y="29" font-family="monospace" font-size="9" fill="#dc2626">⏻ Logout</text>

  <!-- Stats Cards Row -->
  <!-- Card 1 -->
  <rect x="20" y="65" width="205" height="90" rx="10" fill="url(#cardL)" stroke="#16a34a18" stroke-width="0.5" filter="url(#shadowL)"/>
  <text x="35" y="87" font-family="monospace" font-size="9" fill="#666" letter-spacing="1">TOTAL BUDGET</text>
  <text x="35" y="120" font-family="monospace" font-size="30" font-weight="bold" fill="#16a34a">150</text>
  <text x="35" y="140" font-family="monospace" font-size="9" fill="#999">tokens / month</text>

  <!-- Card 2 -->
  <rect x="240" y="65" width="205" height="90" rx="10" fill="url(#cardL)" stroke="#22c55e18" stroke-width="0.5" filter="url(#shadowL)"/>
  <text x="255" y="87" font-family="monospace" font-size="9" fill="#666" letter-spacing="1">REMAINING</text>
  <text x="255" y="120" font-family="monospace" font-size="30" font-weight="bold" fill="#22c55e">127</text>
  <text x="255" y="140" font-family="monospace" font-size="9" fill="#999">available to use</text>

  <!-- Card 3 -->
  <rect x="460" y="65" width="205" height="90" rx="10" fill="url(#cardL)" stroke="#ca8a0418" stroke-width="0.5" filter="url(#shadowL)"/>
  <text x="475" y="87" font-family="monospace" font-size="9" fill="#666" letter-spacing="1">CONSUMED</text>
  <text x="475" y="120" font-family="monospace" font-size="30" font-weight="bold" fill="#ca8a04">23</text>
  <text x="475" y="140" font-family="monospace" font-size="9" fill="#999">15% utilized</text>

  <!-- Card 4 -->
  <rect x="680" y="65" width="200" height="90" rx="10" fill="url(#cardL)" stroke="#dc262618" stroke-width="0.5" filter="url(#shadowL)"/>
  <text x="695" y="87" font-family="monospace" font-size="9" fill="#666" letter-spacing="1">ACTIVE NODES</text>
  <text x="695" y="120" font-family="monospace" font-size="30" font-weight="bold" fill="#dc2626">3</text>
  <text x="732" y="120" font-family="monospace" font-size="14" fill="#999">/ 10</text>
  <text x="695" y="140" font-family="monospace" font-size="9" fill="#999">0 blocked</text>

  <!-- Usage Bar -->
  <rect x="20" y="172" width="860" height="60" rx="10" fill="url(#cardL)" stroke="#16a34a11" stroke-width="0.5" filter="url(#shadowL)"/>
  <text x="35" y="195" font-family="monospace" font-size="10" fill="#16a34a" opacity="0.7" letter-spacing="1">MONTHLY_USAGE_BAR</text>
  <text x="670" y="195" font-family="monospace" font-size="9" fill="#888">100 allocated · 50 pool</text>
  <rect x="35" y="205" width="830" height="14" rx="7" fill="#e8f5ee" stroke="#16a34a11" stroke-width="0.5"/>
  <rect x="35" y="205" width="130" height="14" rx="7" fill="url(#greenBarL)" opacity="0.85"/>
  <circle cx="165" cy="212" r="4" fill="#16a34a" opacity="0.6"/>
  <text x="80" y="215" font-family="monospace" font-size="8" fill="#fff" font-weight="bold">15%</text>

  <!-- Devices Header -->
  <text x="20" y="265" font-family="monospace" font-size="13" font-weight="bold" fill="#1a1a2e">⬡ Connected Devices</text>
  <rect x="680" y="248" width="100" height="26" rx="7" fill="#16a34a" opacity="0.12" stroke="#16a34a33" stroke-width="0.5"/>
  <text x="690" y="265" font-family="monospace" font-size="10" fill="#16a34a">⚡ Transfer</text>
  <rect x="790" y="248" width="90" height="26" rx="7" fill="#ca8a0410" stroke="#ca8a0433" stroke-width="0.5"/>
  <text x="800" y="265" font-family="monospace" font-size="10" fill="#ca8a04">↺ Reset</text>

  <!-- Device Cards -->
  <rect x="20" y="282" width="275" height="160" rx="10" fill="url(#cardL)" stroke="#16a34a15" stroke-width="0.5" filter="url(#shadowL)"/>
  <circle cx="40" cy="305" r="5" fill="#16a34a" opacity="0.8"/>
  <text x="52" y="308" font-family="monospace" font-size="12" font-weight="bold" fill="#1a1a2e">Desktop-PC</text>
  <text x="200" y="308" font-family="monospace" font-size="9" fill="#16a34a" opacity="0.7">● online</text>
  <text x="35" y="330" font-family="monospace" font-size="9" fill="#999">ID: DESKTOP-ARA-001</text>
  <text x="35" y="355" font-family="monospace" font-size="9" fill="#666">Usage: 12 / 50 tokens</text>
  <rect x="35" y="362" width="245" height="8" rx="4" fill="#e8f5ee"/>
  <rect x="35" y="362" width="60" height="8" rx="4" fill="url(#greenBarL)" opacity="0.8"/>
  <text x="35" y="388" font-family="monospace" font-size="8" fill="#999">Last: Claude Sonnet 4 · 2m ago</text>
  <rect x="35" y="410" width="55" height="20" rx="5" fill="#16a34a10" stroke="#16a34a25" stroke-width="0.5"/>
  <text x="42" y="423" font-family="monospace" font-size="8" fill="#16a34a">Transfer</text>
  <rect x="97" y="410" width="45" height="20" rx="5" fill="#16a34a10" stroke="#16a34a25" stroke-width="0.5"/>
  <text x="105" y="423" font-family="monospace" font-size="8" fill="#16a34a">Edit</text>
  <rect x="149" y="410" width="52" height="20" rx="5" fill="#16a34a10" stroke="#16a34a25" stroke-width="0.5"/>
  <text x="155" y="423" font-family="monospace" font-size="8" fill="#16a34a">History</text>
  <rect x="208" y="410" width="50" height="20" rx="5" fill="#fee2e240" stroke="#ef444425" stroke-width="0.5"/>
  <text x="217" y="423" font-family="monospace" font-size="8" fill="#dc2626">Block</text>

  <rect x="312" y="282" width="275" height="160" rx="10" fill="url(#cardL)" stroke="#16a34a15" stroke-width="0.5" filter="url(#shadowL)"/>
  <circle cx="332" cy="305" r="5" fill="#16a34a" opacity="0.8"/>
  <text x="344" y="308" font-family="monospace" font-size="12" font-weight="bold" fill="#1a1a2e">Laptop-Work</text>
  <text x="490" y="308" font-family="monospace" font-size="9" fill="#16a34a" opacity="0.7">● online</text>
  <text x="327" y="330" font-family="monospace" font-size="9" fill="#999">ID: LAPTOP-ARA-002</text>
  <text x="327" y="355" font-family="monospace" font-size="9" fill="#666">Usage: 8 / 50 tokens</text>
  <rect x="327" y="362" width="245" height="8" rx="4" fill="#e8f5ee"/>
  <rect x="327" y="362" width="40" height="8" rx="4" fill="url(#greenBarL)" opacity="0.8"/>
  <text x="327" y="388" font-family="monospace" font-size="8" fill="#999">Last: GPT-4o · 15m ago</text>
  <rect x="327" y="410" width="55" height="20" rx="5" fill="#16a34a10" stroke="#16a34a25" stroke-width="0.5"/>
  <text x="334" y="423" font-family="monospace" font-size="8" fill="#16a34a">Transfer</text>
  <rect x="389" y="410" width="45" height="20" rx="5" fill="#16a34a10" stroke="#16a34a25" stroke-width="0.5"/>
  <text x="397" y="423" font-family="monospace" font-size="8" fill="#16a34a">Edit</text>
  <rect x="441" y="410" width="52" height="20" rx="5" fill="#16a34a10" stroke="#16a34a25" stroke-width="0.5"/>
  <text x="447" y="423" font-family="monospace" font-size="8" fill="#16a34a">History</text>
  <rect x="500" y="410" width="50" height="20" rx="5" fill="#fee2e240" stroke="#ef444425" stroke-width="0.5"/>
  <text x="509" y="423" font-family="monospace" font-size="8" fill="#dc2626">Block</text>

  <rect x="604" y="282" width="275" height="160" rx="10" fill="url(#cardL)" stroke="#16a34a15" stroke-width="0.5" filter="url(#shadowL)"/>
  <circle cx="624" cy="305" r="5" fill="#ca8a04" opacity="0.8"/>
  <text x="636" y="308" font-family="monospace" font-size="12" font-weight="bold" fill="#1a1a2e">MacBook-Dev</text>
  <text x="787" y="308" font-family="monospace" font-size="9" fill="#ca8a04" opacity="0.7">● idle</text>
  <text x="619" y="330" font-family="monospace" font-size="9" fill="#999">ID: MACBOOK-ARA-003</text>
  <text x="619" y="355" font-family="monospace" font-size="9" fill="#666">Usage: 3 / 50 tokens</text>
  <rect x="619" y="362" width="245" height="8" rx="4" fill="#e8f5ee"/>
  <rect x="619" y="362" width="16" height="8" rx="4" fill="url(#greenBarL)" opacity="0.8"/>
  <text x="619" y="388" font-family="monospace" font-size="8" fill="#999">Last: Claude Opus 4.5 · 1h ago</text>
  <rect x="619" y="410" width="55" height="20" rx="5" fill="#16a34a10" stroke="#16a34a25" stroke-width="0.5"/>
  <text x="626" y="423" font-family="monospace" font-size="8" fill="#16a34a">Transfer</text>
  <rect x="681" y="410" width="45" height="20" rx="5" fill="#16a34a10" stroke="#16a34a25" stroke-width="0.5"/>
  <text x="689" y="423" font-family="monospace" font-size="8" fill="#16a34a">Edit</text>
  <rect x="733" y="410" width="52" height="20" rx="5" fill="#16a34a10" stroke="#16a34a25" stroke-width="0.5"/>
  <text x="739" y="423" font-family="monospace" font-size="8" fill="#16a34a">History</text>
  <rect x="792" y="410" width="50" height="20" rx="5" fill="#fee2e240" stroke="#ef444425" stroke-width="0.5"/>
  <text x="801" y="423" font-family="monospace" font-size="8" fill="#dc2626">Block</text>

  <!-- Token Cost Matrix -->
  <rect x="20" y="460" width="860" height="45" rx="8" fill="url(#cardL)" stroke="#16a34a11" stroke-width="0.5" filter="url(#shadowL)"/>
  <text x="35" y="480" font-family="monospace" font-size="10" fill="#666" letter-spacing="1">⚙ TOKEN_COST_MATRIX</text>
  <circle cx="290" cy="477" r="4" fill="#9333ea"/>
  <text x="300" y="481" font-family="monospace" font-size="9" fill="#444">Claude Opus 4.5</text>
  <text x="405" y="481" font-family="monospace" font-size="9" fill="#9333ea" font-weight="bold">3 tok</text>
  <circle cx="470" cy="477" r="4" fill="#2563eb"/>
  <text x="480" y="481" font-family="monospace" font-size="9" fill="#444">GPT-4 / Sonnet</text>
  <text x="580" y="481" font-family="monospace" font-size="9" fill="#2563eb" font-weight="bold">1 tok</text>
  <circle cx="640" cy="477" r="4" fill="#16a34a"/>
  <text x="650" y="481" font-family="monospace" font-size="9" fill="#444">GPT-5 Mini / Grok</text>
  <text x="775" y="481" font-family="monospace" font-size="9" fill="#16a34a" font-weight="bold">FREE</text>
</svg>